<?xml version="1.0" standalone="no"?>
<!DOCTYPE svg PUBLIC "-//W3C//DTD SVG 20010904//EN"
 "http://www.w3.org/TR/2001/REC-SVG-20010904/DTD/svg10.dtd">
<svg version="1.0" xmlns="http://www.w3.org/2000/svg"
 width="1472.000000pt" height="1472.000000pt" viewBox="0 0 1472.000000 1472.000000"
 preserveAspectRatio="xMidYMid meet">
<metadata>
Created by potrace 1.14, written by Peter Selinger 2001-2017
</metadata>
<g transform="translate(0.000000,1472.000000) scale(0.100000,-0.100000)"
fill="#000000" stroke="none">
<path d="M1363 8413 c1 -3470 6 -6324 10 -6343 45 -206 99 -362 160 -470 15
-25 35 -61 46 -81 11 -21 26 -43 33 -50 7 -8 25 -32 41 -55 28 -42 157 -178
214 -226 113 -96 260 -184 388 -234 39 -14 79 -30 90 -35 37 -16 179 -47 266
-59 63 -8 549 -12 1775 -14 929 -2 1700 -5 1714 -9 14 -3 50 -8 81 -11 308
-29 576 -121 724 -248 87 -74 174 -172 211 -236 10 -17 21 -32 25 -32 4 0 16
-19 28 -42 12 -24 33 -61 46 -83 14 -22 42 -73 62 -113 20 -39 40 -72 44 -72
4 0 12 14 19 30 22 52 116 206 167 272 160 209 385 368 633 446 93 29 169 50
210 57 19 3 60 10 90 15 30 5 78 12 105 16 28 4 802 8 1720 9 919 2 1715 6
1770 9 634 39 1186 534 1300 1166 4 19 9 46 13 60 3 14 7 2863 9 6333 l3 6307
-6000 0 -6000 0 3 -6307z"/>
</g>
</svg>
